<?xml version="1.0" encoding="UTF-8" standalone="no"?>
<svg
  viewBox="0 0 64 8"
  version="1.1"
  width="64"
  height="8"
  xmlns="http://www.w3.org/2000/svg"
  xmlns:svg="http://www.w3.org/2000/svg"
>
  <style>
    path {
    fill: #3771c8;
    }
  </style>
  <path
    d="M 30.415454,7.0110229e-6 V 0.09580801 c 0,0.052834 -0.01906,0.1148619 -0.04215,0.137953 -0.02776,0.027752 -0.03774,0.1293497 -0.03065,0.2988981 0.0092,0.2204219 0.0017,0.256746 -0.04726,0.256746 -0.04916,0 -0.0527,0.025441 -0.03194,0.1916014 0.01827,0.14626809 0.01274,0.20017559 -0.023,0.22225779 -0.03741,0.023149 -0.03904,0.037608 -0.0051,0.071531 l -0.0166,5.412101 H 9.3942227 v 0.089415 H 30.218744 l -0.0038,1.2236937 h 0.100909 c 0.0019,-0.623873 0.0049,-1.2213939 0.0064,-1.999041 l 0.0077,-4.1309267 0.385757,-0.010219 c 0.514205,-0.012924 0.506723,-0.075364 -0.0089,-0.075364 H 30.31199 V 1.5443146 1.304174 h 0.394698 c 0.316034,0 0.394699,-0.00992 0.394699,-0.048539 0,-0.038906 -0.05149,-0.044325 -0.269519,-0.02938 C 30.68324,1.23644 30.50406,1.234165 30.434614,1.221145 30.313517,1.198433 30.309556,1.191924 30.319653,1.0704172 l 0.01022,-0.12645699 0.505828,-0.010219 0.505827,-0.00894 V 1.3195026 1.7154789 h 0.669328 0.669328 V 1.3207796 0.92608061 h 0.51477 0.513491 V 1.0627562 1.1981546 l -0.385757,0.010219 c -0.227973,0.00573 -0.385759,0.023167 -0.385759,0.043429 0,0.020267 0.157786,0.038978 0.385759,0.044707 l 0.385757,0.00894 V 1.5455899 1.784453 h -0.394699 c -0.240157,0 -0.393422,0.013604 -0.393422,0.034488 0,0.02088 0.153265,0.033211 0.393422,0.033211 h 0.394699 v 4.1513648 c 0,0.777144 0.0023,1.3728261 0.0038,1.9964861 h 0.07536 v -1.223692 h 9.425501 v -0.089415 h -9.425513 l 0.0026,-5.3239644 -0.0026,-0.2733513 c -0.0015,-0.18189319 -0.01716,-0.28363929 -0.04598,-0.30145289 -0.03,-0.018562 -0.04107,-0.1072151 -0.03577,-0.2874022 0.0064,-0.2167955 -0.0013,-0.260578 -0.04598,-0.260578 -0.03851,0 -0.05364,-0.033979 -0.05364,-0.1200702 V 7.0110229e-6 H 32.010821 Z M 31.719621,0.40747941 v 0.190324 0.1916015 h -0.135399 c -0.15654,0 -0.158028,-0.00169 -0.157112,-0.2056522 v -0.1545585 l 0.145616,-0.011495 z m 1.543031,0 v 0.190324 0.1916015 H 33.106816 32.95098 l 0.01022,-0.1801054 0.01022,-0.1801053 0.145617,-0.011495 z m -2.847198,0.00383 h 0.154559 0.154558 v 0.1890488 0.1890467 h -0.154558 -0.154559 v -0.1890467 z m 0.376817,0 h 0.137952 0.136676 v 0.1890488 0.1890467 h -0.136675 -0.137953 v -0.1890467 z m 0.447069,0 c 0.102007,0 0.102188,0.00226 0.102188,0.1890467 0,0.1868044 -3.02e-4,0.1890468 -0.102188,0.1890467 -0.101943,0 -0.103465,-0.00226 -0.103465,-0.1890467 0,-0.1868025 0.0015,-0.1890467 0.103465,-0.1890467 z m 0.54798,0 h 0.223536 0.222257 v 0.1890501 0.1890466 H 32.010856 31.78732 v -0.1890479 z m 0.51477,0 h 0.154559 0.154557 v 0.1890488 0.1890467 H 32.456649 32.30209 v -0.1890467 z m 0.48028,0 c 0.102007,0 0.103465,0.00226 0.103465,0.1890467 0,0.1868044 -0.0015,0.1890468 -0.103465,0.1890467 -0.102008,0 -0.102187,-0.00226 -0.102187,-0.1890467 0,-0.1868025 3.01e-4,-0.1890467 0.102187,-0.1890467 z m 0.549257,0 h 0.136677 0.137953 v 0.1890488 0.1890467 h -0.137953 -0.136677 v -0.1890467 z m -1.91729,0.4802839 h 0.152003 0.153281 v 0.17244079 0.171164 h -0.135399 c -0.159278,0 -0.16645,-0.00802 -0.168609,-0.1979882 z m 0.372983,0 h 0.223536 0.222257 V 1.0640341 1.2351981 H 32.010856 31.78732 V 1.0640348 Z m 0.51477,0 h 0.154559 0.154557 V 1.0640341 1.2351981 H 32.456649 32.30209 V 1.0640329 Z M 31.406672,1.3041738 h 0.155836 c 0.149417,0 0.157113,0.0037 0.157113,0.099633 0,0.055065 -0.01026,0.12471 -0.02171,0.1545586 -0.0138,0.035978 -0.06388,0.053648 -0.148171,0.053648 -0.126648,0 -0.126155,4.866e-4 -0.13412,-0.1532812 z m 0.380648,0 h 0.223536 0.222257 V 1.41658 c 0,0.062269 -0.01823,0.1319164 -0.04087,0.1545585 -0.02265,0.022641 -0.104018,0.040875 -0.181383,0.040875 -0.170251,0 -0.223535,-0.046134 -0.223535,-0.1954335 z m 0.66933,0 h 0.154557 v 0.1545585 c 10e-7,0.1515843 -0.0016,0.1532791 -0.111128,0.1520037 -0.135849,-0.00158 -0.197988,-0.06483 -0.197988,-0.2030975 0,-0.1008471 0.0055,-0.1034647 0.154559,-0.1034647 z m -0.576083,0.6092925 c -0.09224,0.0055 -0.108548,0.033777 -0.06132,0.090691 0.02692,0.03244 0.03777,1.0139934 0.03705,3.4207242 -4.15e-4,1.1361444 5.1e-5,1.7489314 0,2.5751234 h 0.07281 c -0.0028,-0.02225 -0.0039,-0.05068 -0.0039,-0.09197 0,-0.141805 0.0068,-0.154559 0.08558,-0.154559 0.07878,0 0.08558,0.01276 0.08558,0.154559 0,0.04128 -10e-4,0.06971 -0.0038,0.09197 h 0.07408 c 0.0024,-0.595941 0.0049,-1.1307605 0.0064,-1.8470382 l 0.0089,-4.2267272 -0.18266,-0.011496 c -0.04811,-0.00294 -0.08805,-0.00311 -0.118794,-0.00127 z m -0.379371,0.00767 c -0.169137,2e-6 -0.197633,0.00925 -0.180105,0.054926 0.01146,0.029848 0.02043,1.9421706 0.02043,4.2509971 V 8.000012 h 0.07281 c -0.0024,-0.02212 -0.0039,-0.05105 -0.0039,-0.09197 0,-0.1418041 0.0068,-0.154558 0.08558,-0.154558 0.07189,0 0.08558,0.01699 0.08558,0.1009089 0,0.05198 0.0086,0.1134051 0.01916,0.1456171 h 0.08558 c 0.0024,-0.5968431 0.0049,-1.1332627 0.0064,-1.850869 l 0.0089,-4.2280054 z m 0.818776,0 0.0077,4.2280059 c 0.0015,0.7182192 0.0042,1.2542607 0.0064,1.8508687 h 0.109852 c -0.0028,-0.02229 -0.0038,-0.0505 -0.0038,-0.09197 0,-0.141802 0.0068,-0.154558 0.08558,-0.154558 0.07879,0 0.08558,0.01276 0.08558,0.154558 0,0.04124 -10e-4,0.06972 -0.0038,0.09197 h 0.07281 v -1.774236 c 0,-2.3080655 0.009,-4.2198716 0.02043,-4.24972 0.01753,-0.045677 -0.01096,-0.054924 -0.180106,-0.054926 z m -0.309116,0.068977 c 0.08001,0 0.08558,0.01106 0.08558,0.1711639 0,0.1601055 -0.0056,0.171164 -0.08558,0.1711639 -0.08001,0 -0.08558,-0.011059 -0.08558,-0.1711639 0,-0.1601042 0.0056,-0.1711639 0.08558,-0.1711639 z m 0.516046,0 c 0.08315,-1e-7 0.08785,0.00761 0.07792,0.1622224 -0.0089,0.1390658 -0.02226,0.16564 -0.08814,0.1749961 -0.07137,0.010132 -0.07664,-0.00275 -0.07664,-0.1634999 0,-0.1636456 0.0044,-0.1737185 0.08686,-0.1737186 z m -0.991218,0.00383 c 0.02812,1.973e-4 0.0483,0.00755 0.04981,0.019161 0.002,0.015465 0.0071,0.086354 0.01149,0.1571132 0.0075,0.1209113 0.0027,0.1290117 -0.09069,0.1290117 -0.0957,0 -0.09958,-0.00649 -0.08941,-0.1468945 0.0088,-0.1212112 0.02397,-0.1467216 0.08814,-0.1558358 0.01062,-0.00151 0.02129,-0.00262 0.03065,-0.00256 z m 0.475172,0.3908669 c 0.07942,0 0.08558,0.011266 0.08558,0.1622226 0,0.150955 -0.0062,0.1634999 -0.08558,0.1634999 -0.07943,0 -0.08558,-0.012544 -0.08558,-0.1634999 0,-0.1509553 0.0062,-0.1622226 0.08558,-0.1622226 z m 0.46623,0.00256 c 0.01188,-9.07e-4 0.02804,0.00247 0.04854,0.00639 0.07595,0.01452 0.08558,0.032886 0.08558,0.1660546 0,0.1375411 -0.0072,0.1507264 -0.08558,0.1507264 -0.07976,10e-8 -0.08558,-0.012302 -0.08558,-0.1673318 0,-0.1195502 0.0014,-0.1531022 0.03705,-0.1558359 z m -0.972058,0.014051 c 0.0882,0 0.09455,0.00941 0.09452,0.1456171 -2.6e-5,0.1335511 -0.0081,0.1471711 -0.09452,0.1571132 -0.09075,0.010441 -0.09452,0.00505 -0.09452,-0.1456169 0,-0.1480504 0.0054,-0.1571133 0.09452,-0.1571134 z m 0.0013,0.3780936 c 0.09024,0 0.09586,0.00822 0.09325,0.1456169 -0.0025,0.1322184 -0.01142,0.1459913 -0.0958,0.155836 -0.0892,0.010406 -0.09325,0.00456 -0.09325,-0.1456172 0,-0.1486183 0.0049,-0.1558357 0.0958,-0.1558357 z m 0.50455,0 c 0.07878,0 0.08558,0.011474 0.08558,0.153281 0,0.1418054 -0.0068,0.1545585 -0.08558,0.1545585 -0.07879,0 -0.08558,-0.012751 -0.08558,-0.1545585 0,-0.1418061 0.0068,-0.153281 0.08558,-0.153281 z m 0.518602,0 c 0.07433,0 0.08175,0.013359 0.08175,0.153281 0,0.1403869 -0.0076,0.1545585 -0.08302,0.1545585 -0.09673,0 -0.113063,-0.03278 -0.09452,-0.1916014 0.01121,-0.096003 0.02812,-0.1162382 0.0958,-0.1162381 z m -0.518632,0.3768128 c 0.07878,0 0.08558,0.012751 0.08558,0.1545586 0,0.1418059 -0.0068,0.1545584 -0.08558,0.1545584 -0.07879,0 -0.08558,-0.012752 -0.08558,-0.1545584 0,-0.1418066 0.0068,-0.1545586 0.08558,-0.1545586 z m 0.514769,0 c 0.07879,0 0.08558,0.012751 0.08558,0.1545586 0,0.1418059 -0.0068,0.1545584 -0.08558,0.1545584 -0.07879,0 -0.08558,-0.012752 -0.08558,-0.1545584 0,-0.1418066 0.0068,-0.1545586 0.08558,-0.1545586 z m -1.075522,0.00383 c 0.01268,-0.0015 0.03052,-3.66e-5 0.05237,0.00256 0.0749,0.00888 0.0925,0.029483 0.09708,0.1136836 0.0031,0.056608 -0.002,0.1220292 -0.01023,0.1456171 -0.0083,0.023586 -0.05193,0.043429 -0.09708,0.043429 -0.07461,0 -0.08175,-0.014743 -0.08175,-0.1571131 0,-0.112202 0.0015,-0.1436837 0.0396,-0.1481719 z m -7.818591,0.088132 v 0.3474373 h 0.268242 V 3.24829 Z m 7.873542,0.2848474 c 0.08931,0 0.0948,0.00891 0.09452,0.1545585 -2.48e-4,0.1454053 -0.0056,0.1544895 -0.09452,0.1545585 -0.08892,5.57e-5 -0.09452,-0.00899 -0.09452,-0.1545585 0,-0.1456536 0.0052,-0.1545585 0.09452,-0.1545585 z m 0.505828,0 c 0.07878,0 0.08558,0.012752 0.08558,0.1545585 0,0.1418073 -0.0068,0.1545585 -0.08558,0.1545585 -0.07879,0 -0.08558,-0.012752 -0.08558,-0.1545585 0,-0.1418061 0.0068,-0.1545585 0.08558,-0.1545585 z m 0.514769,0 c 0.07879,0 0.08558,0.012752 0.08558,0.1545585 0,0.1418073 -0.0068,0.1545585 -0.08558,0.1545585 -0.07879,0 -0.08558,-0.012752 -0.08558,-0.1545585 0,-0.1418061 0.0068,-0.1545585 0.08558,-0.1545585 z m 23.35109,0.1162385 V 4.2075744 H 55.50119 v 0.1954335 h 0.375543 v 1.4178506 c 0,0.2101891 0.04211,0.3622342 0.126451,0.4572889 0.08434,0.093715 0.202485,0.1405072 0.355102,0.1405072 0.129858,0 0.246904,-0.015195 0.349994,-0.045979 L 56.67123,6.200234 c -0.04686,0.00804 -0.09244,0.013801 -0.137954,0.019156 -0.04417,0.00539 -0.08866,0.00894 -0.132841,0.00894 -0.08569,0 -0.154723,-0.03282 -0.206932,-0.097078 -0.05087,-0.064262 -0.07664,-0.1671454 -0.07664,-0.3103943 V 4.4030079 h 0.507104 V 4.2075744 h -0.5071 V 3.6493756 Z M 32.010856,3.911231 c 0.08001,0 0.08558,0.011059 0.08558,0.1711638 0,0.1601039 -0.0056,0.1724414 -0.08558,0.1724414 -0.08001,0 -0.08558,-0.012337 -0.08558,-0.1724414 0,-0.1601038 0.0056,-0.1711638 0.08558,-0.1711638 z m 0.516046,0 c 0.08315,-10e-8 0.08785,0.00888 0.07792,0.1634998 -0.0089,0.139069 -0.02226,0.1643632 -0.08814,0.1737186 -0.07137,0.010132 -0.07664,-0.00275 -0.07664,-0.1634999 0,-0.1636451 0.0044,-0.1737186 0.08686,-0.1737185 z m -1.029538,0.021715 c 0.02084,3e-5 0.04742,0.00299 0.08175,0.00767 0.01734,0.00236 0.02633,0.06934 0.02044,0.1481719 -0.0089,0.1194633 -0.0227,0.1448122 -0.08558,0.149449 -0.08928,0.00658 -0.111968,-0.039941 -0.09708,-0.1954334 0.008,-0.083586 0.01796,-0.1099415 0.08048,-0.1098517 z M 16.934379,4.1654227 c -0.174043,0 -0.322625,0.045699 -0.445793,0.1353985 -0.12183,0.089698 -0.214322,0.2125139 -0.275906,0.3691516 -0.09505,-0.3346959 -0.313825,-0.5019957 -0.656554,-0.5019957 -0.161994,0 -0.302434,0.03628 -0.420247,0.1085741 -0.116473,0.072294 -0.207689,0.1728679 -0.274629,0.3027299 L 14.84082,4.2075744 h -0.541594 v 0.1775505 l 0.327,0.025548 v 1.769119 l -0.327,0.025548 v 0.174996 h 0.897973 V 6.2053377 L 14.86892,6.1797897 v -1.291392 c 0.03614,-0.155299 0.104089,-0.2792693 0.201819,-0.3729842 0.09907,-0.093715 0.235863,-0.1405078 0.412583,-0.1405078 0.167348,0 0.299646,0.056091 0.394699,0.1698867 0.09639,0.1124578 0.14434,0.3008451 0.14434,0.5645855 v 1.070414 l -0.327,0.025548 v 0.174996 h 0.896696 V 6.2053394 L 16.265055,6.1797919 V 5.0071913 c 0.02009,-0.1834134 0.08091,-0.3343049 0.18266,-0.4534567 0.103086,-0.1204906 0.248144,-0.1813827 0.435574,-0.1813827 0.167348,0 0.29843,0.056213 0.392145,0.1673319 0.09505,0.111119 0.141784,0.3005993 0.141784,0.5696949 v 1.0678584 l -0.326999,0.026822 V 6.3790547 H 17.98819 V 6.2040595 l -0.327,-0.026822 V 5.1132108 c 0,-0.3226469 -0.06442,-0.5600746 -0.191601,-0.7140347 C 17.34374,4.2438772 17.165988,4.1654223 16.934379,4.1654227 Z m 25.219856,0 c -0.174042,0 -0.322623,0.045699 -0.445793,0.1353985 -0.121828,0.089698 -0.213045,0.2125143 -0.274629,0.369152 -0.09505,-0.334696 -0.313825,-0.5019957 -0.656554,-0.5019957 -0.161993,0 -0.302432,0.03628 -0.420245,0.1085741 -0.116473,0.072294 -0.20769,0.1728683 -0.274628,0.3027303 l -0.02043,-0.3717068 h -0.541593 v 0.1775506 l 0.327,0.025547 v 1.7691204 l -0.327,0.025548 v 0.1749957 h 0.896694 V 6.2053411 L 40.090053,6.1797936 V 4.8883982 c 0.03615,-0.155299 0.102812,-0.2792693 0.200543,-0.3729842 0.09907,-0.093715 0.23714,-0.1405078 0.41386,-0.1405078 0.167347,0 0.298368,0.056091 0.393422,0.1698867 0.09639,0.1124578 0.144339,0.3008451 0.144339,0.5645855 v 1.0704135 l -0.327,0.025548 v 0.174996 h 0.897972 V 6.2053394 l -0.327,-0.025548 V 5.0071913 c 0.02009,-0.1834134 0.08091,-0.3343049 0.182661,-0.4534567 0.103086,-0.1204906 0.248143,-0.1813827 0.435574,-0.1813827 0.167347,0 0.297151,0.056213 0.390867,0.1673319 0.09505,0.111119 0.143062,0.3005993 0.143062,0.5696949 v 1.0678584 l -0.326999,0.026822 v 0.1749956 h 0.897972 V 6.2040595 L 42.881048,6.1772371 V 5.1132108 c 0,-0.3226469 -0.06313,-0.5600746 -0.190323,-0.7140347 -0.125852,-0.1552989 -0.304879,-0.2337538 -0.53649,-0.2337534 z m -31.389424,0.00256 c -0.186091,0 -0.348773,0.045577 -0.486668,0.137953 -0.136556,0.092372 -0.243025,0.2211445 -0.3193346,0.384476 -0.07631,0.1633317 -0.1136837,0.350503 -0.1136837,0.5620309 v 0.084304 c 0,0.2155443 0.038586,0.4050858 0.1162377,0.5684176 0.07899,0.1633318 0.1878276,0.2896113 0.3257226,0.380649 0.139233,0.091037 0.298268,0.1366751 0.479004,0.1366751 0.243658,0 0.43794,-0.063133 0.581191,-0.1903241 0.143248,-0.1285249 0.223951,-0.295824 0.242695,-0.5019973 l -0.0038,-0.012776 h -0.214593 c -0.02276,0.1660091 -0.08827,0.2924117 -0.19671,0.378094 -0.108441,0.084343 -0.244203,0.1264567 -0.406195,0.1264567 -0.208851,0 -0.374996,-0.080707 -0.498164,-0.2426957 -0.123202,-0.1633284 -0.183971,-0.377421 -0.183971,-0.6425003 v -0.084305 c 0,-0.1686868 0.02807,-0.3196396 0.0843,-0.4521792 0.05757,-0.1338787 0.137055,-0.2391933 0.240141,-0.3155039 0.103087,-0.076311 0.223656,-0.1136836 0.360211,-0.1136836 0.116474,-1e-7 0.219418,0.019872 0.309117,0.060035 0.0897,0.038824 0.168092,0.093822 0.235031,0.1647773 l 0.03194,0.4049181 h 0.200543 l -0.0038,-0.4917771 C 11.455665,4.4086185 11.345672,4.3267002 11.21447,4.2637774 11.08327,4.1995154 10.933532,4.1679764 10.764846,4.1679764 Z m 2.222577,0 c -0.192785,0 -0.361239,0.046793 -0.505827,0.1405076 -0.14325,0.093709 -0.254338,0.2223587 -0.334665,0.3870291 -0.07899,0.1646704 -0.118792,0.3542736 -0.118792,0.5671403 v 0.065144 c 0,0.2142054 0.03981,0.4037468 0.118792,0.5684176 0.08033,0.1646702 0.19263,0.2945969 0.337219,0.3883116 0.144589,0.092377 0.312982,0.1379535 0.507105,0.1379535 0.191447,0 0.358747,-0.045577 0.501996,-0.1379535 0.144589,-0.093714 0.256953,-0.223641 0.335941,-0.3883119 0.08033,-0.1646701 0.12007,-0.3542117 0.12007,-0.5684172 v -0.065145 c 0,-0.2128667 -0.03974,-0.4024698 -0.12007,-0.5671403 C 13.750169,4.530849 13.637805,4.4021993 13.493216,4.3084844 13.348628,4.2147695 13.180173,4.1679767 12.987388,4.1679767 Z m 8.966947,0 c -0.163331,0 -0.304925,0.037434 -0.424077,0.1124062 -0.117813,0.074972 -0.210183,0.180225 -0.278462,0.3167809 L 21.231366,4.2075785 H 20.69105 v 0.1775506 l 0.326999,0.025548 v 1.7691203 l -0.326999,0.025548 v 0.1749981 h 0.895417 V 6.2053429 L 21.259465,6.1797953 V 4.9190544 c 0.04016,-0.1619928 0.112722,-0.2930127 0.217148,-0.3934217 0.104425,-0.1004087 0.245959,-0.1507265 0.425356,-0.1507265 0.171365,0 0.3036,0.051472 0.395977,0.1545585 0.09237,0.1030865 0.137953,0.2796833 0.137953,0.5313747 v 1.1189525 l -0.327001,0.025548 v 0.174996 h 0.895417 V 6.2053394 l -0.327,-0.025548 V 5.059562 c 0,-0.3065815 -0.06205,-0.5311871 -0.185213,-0.6744371 -0.12317,-0.1445885 -0.302137,-0.2171482 -0.537763,-0.2171482 z m 3.586779,0 c -0.186091,0 -0.348773,0.045577 -0.486668,0.137953 -0.136556,0.092376 -0.243025,0.2211486 -0.319335,0.3844801 -0.07631,0.1633317 -0.113684,0.3505031 -0.113684,0.5620309 v 0.084304 c 0,0.2155442 0.03859,0.4050855 0.116238,0.5684174 0.07899,0.1633317 0.187828,0.2896106 0.325722,0.3806484 0.139234,0.091037 0.298268,0.136676 0.479004,0.136676 0.243659,0 0.437942,-0.063133 0.581192,-0.1903242 0.143248,-0.1285238 0.22395,-0.2958231 0.242694,-0.5019957 l -0.0038,-0.012776 h -0.214564 c -0.02276,0.1660084 -0.08827,0.2924109 -0.196711,0.3780932 -0.108441,0.084343 -0.244203,0.1264572 -0.406195,0.1264572 -0.208851,0 -0.374995,-0.080698 -0.498164,-0.2426954 C 24.923614,5.8159175 24.861569,5.6018249 24.861569,5.3367454 v -0.084304 c 0,-0.1686867 0.02808,-0.3196396 0.0843,-0.4521792 0.05757,-0.1338784 0.138332,-0.239193 0.241417,-0.3155036 0.103087,-0.076311 0.223656,-0.1136836 0.360212,-0.1136836 0.116473,0 0.219417,0.019872 0.309116,0.060035 0.0897,0.038824 0.168093,0.093822 0.235032,0.1647773 l 0.03194,0.4049177 H 26.32413 L 26.32023,4.5090279 C 26.23193,4.4086186 26.12194,4.3267003 25.99074,4.2637775 25.859539,4.1995155 25.709801,4.1679765 25.541115,4.1679765 Z m 2.103784,0 c -0.151281,0 -0.285767,0.02218 -0.404917,0.067699 -0.119153,0.045519 -0.225621,0.1099356 -0.319336,0.1916014 v 0.4534567 h 0.199266 l 0.01916,-0.3321091 c 0.06159,-0.052212 0.134143,-0.094265 0.217148,-0.1277342 0.08434,-0.034809 0.179084,-0.052372 0.284849,-0.052372 0.186089,0 0.32653,0.048009 0.420244,0.1430623 0.09372,0.095054 0.140508,0.2213945 0.140508,0.3793709 v 0.2490801 h -0.449625 c -0.294532,0 -0.527341,0.061985 -0.698707,0.1864919 -0.170025,0.1231683 -0.255467,0.2845725 -0.255467,0.4853904 0,0.1874295 0.05852,0.3360129 0.174995,0.4457929 0.116474,0.1097801 0.27794,0.1647775 0.484113,0.1647775 0.157977,0 0.30188,-0.036225 0.431742,-0.109852 0.129862,-0.073631 0.23396,-0.1683734 0.312949,-0.2848474 0.0013,0.060242 0.0047,0.1140253 0.01149,0.1622225 0.0067,0.048186 0.01849,0.1113355 0.03321,0.1903241 h 0.473893 V 6.2053386 l -0.2593,-0.00894 c -0.0067,-0.041504 -0.0114,-0.083676 -0.01405,-0.1251804 -0.0027,-0.042847 -0.0038,-0.084893 -0.0038,-0.1277337 v -1.048697 c 0,-0.2275932 -0.06904,-0.4054061 -0.206929,-0.5339292 -0.137885,-0.1285242 -0.335692,-0.1928797 -0.5914,-0.1928797 z m 8.34105,0 c -0.186093,0 -0.348774,0.045577 -0.486669,0.137953 -0.136555,0.092376 -0.243024,0.2211486 -0.319336,0.3844801 -0.07631,0.1633317 -0.113683,0.3505031 -0.113683,0.5620309 v 0.084304 c 0,0.2155442 0.03859,0.4050855 0.116239,0.5684174 0.07899,0.1633317 0.186549,0.2896106 0.324444,0.3806484 0.139234,0.091037 0.299546,0.136676 0.48028,0.136676 0.243659,0 0.436664,-0.063133 0.579915,-0.1903242 0.14325,-0.1285238 0.22523,-0.2958231 0.243972,-0.5019957 l -0.0038,-0.012776 H 36.59144 C 36.56868,5.883405 36.50317,6.0098075 36.394729,6.0954898 36.286288,6.1798328 36.151804,6.221947 35.989811,6.221947 35.78096,6.221947 35.614816,6.141249 35.491648,5.9792516 35.368447,5.8159175 35.306401,5.6018249 35.306401,5.3367454 v -0.084304 c 0,-0.1686867 0.02807,-0.3196396 0.08431,-0.4521792 0.05756,-0.1338784 0.138331,-0.239193 0.241419,-0.3155036 0.103085,-0.076311 0.222376,-0.1136836 0.358933,-0.1136836 0.116474,-2e-7 0.219418,0.019872 0.309117,0.060035 0.0897,0.038824 0.168091,0.093822 0.235031,0.1647773 l 0.03321,0.4049177 h 0.200545 l -0.0039,-0.4917773 c -0.0883,-0.1004091 -0.198292,-0.1823274 -0.329493,-0.2452502 -0.1312,-0.064262 -0.280938,-0.095801 -0.449624,-0.095801 z m 2.222576,0 c -0.192786,0 -0.361239,0.046793 -0.505829,0.1405076 -0.143248,0.093711 -0.255613,0.2223606 -0.33594,0.3870309 -0.07899,0.1646704 -0.118792,0.3542737 -0.118792,0.5671403 v 0.065145 c 0,0.2142055 0.0398,0.4037468 0.118792,0.5684176 0.08033,0.1646702 0.192629,0.2945968 0.337219,0.3883116 0.144588,0.092377 0.314259,0.1379534 0.508381,0.1379534 0.191446,0 0.358748,-0.045577 0.501996,-0.1379534 0.144589,-0.093715 0.256954,-0.2236414 0.335942,-0.3883116 0.08033,-0.1646708 0.12007,-0.3542121 0.12007,-0.5684176 v -0.065145 c 0,-0.2128666 -0.03974,-0.4024698 -0.12007,-0.5671402 C 38.971305,4.530849 38.858939,4.4021993 38.714351,4.3084844 38.569762,4.2147695 38.401308,4.1679767 38.208523,4.1679767 Z m 6.465909,0 c -0.155299,0 -0.289783,0.032755 -0.404917,0.098355 -0.113797,0.064261 -0.207444,0.1555384 -0.279739,0.2733514 L 43.960397,4.20758 h -0.528821 v 0.1775506 l 0.327,0.025548 V 7.012626 l -0.319335,0.026831 v 0.176271 h 0.896694 V 7.0394483 l -0.335939,-0.026821 v -0.91714 c 0.07096,0.1030852 0.163387,0.1838491 0.277184,0.2414175 0.115136,0.057572 0.24968,0.085582 0.40364,0.085582 0.258386,0 0.460749,-0.09711 0.608015,-0.2912344 0.147266,-0.194123 0.220981,-0.4526389 0.220981,-0.7766242 v -0.042153 c 0,-0.2316095 -0.03269,-0.4328187 -0.09963,-0.6041831 C 45.344581,4.5369284 45.248565,4.4034766 45.124057,4.3097618 44.999552,4.2147081 44.849815,4.1679767 44.674433,4.1679767 Z m 2.200862,0 c -0.192785,0 -0.36124,0.046793 -0.505828,0.1405076 -0.143249,0.093715 -0.254337,0.2223646 -0.334663,0.387035 -0.07899,0.1646704 -0.118793,0.3542736 -0.118793,0.5671403 v 0.065145 c 0,0.2142053 0.0398,0.4037474 0.118793,0.5684176 0.08033,0.1646699 0.192628,0.2945969 0.337218,0.3883119 0.144588,0.092376 0.314259,0.1379534 0.508381,0.1379534 0.191447,0 0.358748,-0.045577 0.501996,-0.1379534 0.14459,-0.093719 0.255676,-0.2236458 0.334664,-0.3883166 0.08033,-0.1646701 0.12007,-0.3542118 0.12007,-0.5684173 v -0.065145 c 0,-0.2128666 -0.03974,-0.4024698 -0.12007,-0.5671402 C 47.638075,4.530849 47.526989,4.4021993 47.382399,4.3084844 47.237811,4.2147695 47.068079,4.1679767 46.875295,4.1679767 Z m 2.575123,0 c -0.163331,0 -0.304927,0.037434 -0.424079,0.1124062 -0.117812,0.074972 -0.210183,0.180225 -0.27846,0.3167809 l -0.02044,-0.3895896 h -0.540316 v 0.1775506 l 0.327,0.025548 v 1.7691196 l -0.327,0.025548 v 0.1749973 h 0.895418 V 6.2053411 l -0.327,-0.025548 V 4.9190544 c 0.04016,-0.1619928 0.112723,-0.2930127 0.217148,-0.3934217 0.104425,-0.1004087 0.245958,-0.1507265 0.425355,-0.1507265 0.171364,0 0.3036,0.051472 0.395976,0.1545585 0.09238,0.1030865 0.137953,0.2796833 0.137953,0.5313747 v 1.1189525 l -0.326999,0.025548 v 0.174996 H 50.50039 V 6.2053394 l -0.327,-0.025548 V 5.059562 c 0,-0.3065815 -0.06205,-0.5311871 -0.185214,-0.674437 C 49.86501,4.2405364 49.686043,4.1679767 49.450418,4.1679767 Z m 2.288998,0 c -0.168687,0 -0.321948,0.046793 -0.459843,0.1405076 -0.136557,0.093715 -0.245396,0.222426 -0.325723,0.3857576 -0.08033,0.1619929 -0.12007,0.3468553 -0.12007,0.5543668 v 0.1098515 c 0,0.2088504 0.03974,0.3937123 0.12007,0.5543667 0.08033,0.1593154 0.191474,0.2845018 0.333387,0.3755396 0.14191,0.089698 0.306963,0.1341204 0.493054,0.1341204 0.167347,0 0.311251,-0.025702 0.431742,-0.077917 0.12049,-0.052216 0.222262,-0.1188774 0.305284,-0.200544 l -0.103464,-0.164781 c -0.07899,0.076308 -0.170203,0.1359874 -0.274629,0.1788279 -0.103086,0.042847 -0.222378,0.063869 -0.358933,0.063869 -0.139234,0 -0.262111,-0.036276 -0.367874,-0.1085736 -0.104426,-0.072298 -0.186344,-0.1717772 -0.24525,-0.2976237 -0.05755,-0.125845 -0.08679,-0.2685326 -0.08814,-0.4291867 l 0.0038,-0.088137 h 1.505958 v -0.204372 c 0,-0.2811447 -0.07487,-0.5058117 -0.224813,-0.6731598 -0.14997,-0.1686912 -0.358228,-0.2529183 -0.624647,-0.2529183 z m 2.485709,0 c -0.163331,0 -0.303649,0.037434 -0.4228,0.1124062 -0.117814,0.074972 -0.21146,0.180225 -0.279739,0.3167809 l -0.02043,-0.3895913 h -0.539039 v 0.1775506 l 0.327,0.025548 v 1.7691203 l -0.327,0.025548 v 0.1749981 h 0.895418 V 6.2053429 L 53.530256,6.179795 V 4.9190544 c 0.04016,-0.1619928 0.112723,-0.2930127 0.217148,-0.3934217 0.104425,-0.1004087 0.247235,-0.1507265 0.426633,-0.1507265 0.171363,0 0.302322,0.051472 0.394698,0.1545585 0.09238,0.1030865 0.13923,0.2796833 0.13923,0.5313747 v 1.1189525 l -0.328276,0.025548 v 0.174996 h 0.896695 V 6.2053394 L 54.948105,6.1797919 V 5.059562 c 0,-0.3065815 -0.06077,-0.5311871 -0.183937,-0.6744371 C 54.641,4.2405364 54.460755,4.1679767 54.22513,4.1679767 Z m 3.634043,0 c -0.228933,0 -0.4127,0.056152 -0.549262,0.1686092 -0.136555,0.1124579 -0.204374,0.250466 -0.204374,0.4151364 0,0.167348 0.05731,0.2984294 0.17244,0.3921443 0.116478,0.093715 0.304862,0.1685834 0.564584,0.2248124 0.216887,0.048196 0.367842,0.1113358 0.452183,0.1903243 0.08568,0.077645 0.127732,0.1677713 0.127732,0.2695192 0,0.108441 -0.04672,0.2020271 -0.14178,0.2810157 -0.09505,0.078988 -0.234341,0.1187924 -0.416415,0.1187924 -0.108446,0 -0.210234,-0.0141 -0.305287,-0.040871 -0.09505,-0.026779 -0.181649,-0.070046 -0.259298,-0.1302926 l -0.03321,-0.3193379 h -0.196716 l 0.0013,0.4457924 c 0.11513,0.077644 0.23801,0.1373262 0.367875,0.1788285 0.131198,0.040161 0.27273,0.060045 0.425354,0.060045 0.258382,-9e-7 0.456133,-0.056092 0.592688,-0.1698869 0.137896,-0.1137961 0.206926,-0.2601316 0.206926,-0.4368511 0,-0.1673481 -0.06205,-0.3030472 -0.185214,-0.4074725 -0.121806,-0.1057753 -0.317114,-0.1887866 -0.587551,-0.2503706 -0.149941,-0.03347 -0.264615,-0.069749 -0.343606,-0.1085742 -0.07764,-0.038825 -0.130263,-0.083309 -0.158384,-0.1328435 -0.02677,-0.049535 -0.04087,-0.106841 -0.04087,-0.1724414 0,-0.1004088 0.04448,-0.1881607 0.13284,-0.2631327 0.08836,-0.076311 0.213486,-0.1149608 0.376816,-0.1149608 0.113795,10e-8 0.210908,0.016408 0.291238,0.04854 0.08167,0.030792 0.153069,0.075276 0.213315,0.1328438 l 0.02811,0.320613 h 0.196707 l -0.01025,-0.445794 C 58.492719,4.3445206 58.392139,4.2837514 58.274327,4.2382327 58.156509,4.191375 58.01851,4.1679789 57.859195,4.1679789 Z m -39.690876,0.039592 v 0.1775506 l 0.269518,0.025548 v 1.0563627 c 0,0.3266635 0.0632,0.5676767 0.189046,0.7229756 0.127185,0.1552985 0.30506,0.2324767 0.532653,0.2324767 0.161994,0 0.298786,-0.033847 0.412582,-0.103465 0.115136,-0.069618 0.207628,-0.1691588 0.275906,-0.2963428 l 0.01917,0.3576552 h 0.504551 V 6.2053386 L 20.080475,6.179791 V 4.2075744 h -0.551811 v 0.1775505 l 0.309117,0.025548 v 1.3271597 c -0.03882,0.1472653 -0.11017,0.2643091 -0.214595,0.3499914 -0.104423,0.085682 -0.249483,0.1277331 -0.435573,0.1277331 -0.16467,0 -0.291072,-0.057307 -0.378093,-0.1724393 C 18.7225,5.9266416 18.67923,5.735946 18.67923,5.4708668 V 4.2075744 Z m 5.163019,0 v 0.1775506 l 0.328277,0.025548 v 1.7691184 l -0.328277,0.025548 v 0.174996 h 0.896695 V 6.2053403 L 23.899728,6.1797927 V 4.2075744 Z m 8.726806,0.10091 c 0.03564,0.00274 0.03832,0.036284 0.03832,0.1558359 0,0.1550293 -0.0059,0.1673319 -0.08558,0.1673318 -0.07844,1e-7 -0.08558,-0.013186 -0.08558,-0.1507264 0,-0.1331684 0.0096,-0.1515358 0.08558,-0.1660546 0.0205,-0.00392 0.03537,-0.0073 0.04726,-0.00639 z m -0.562031,0.014051 c 0.04717,0 0.08752,0.019843 0.08941,0.043429 0.0019,0.023586 0.0062,0.089008 0.0089,0.1456171 0.0039,0.079553 -0.01102,0.1046536 -0.06515,0.1124061 -0.09665,0.013837 -0.118793,-0.017477 -0.118793,-0.1698865 0,-0.1174103 0.009,-0.1315663 0.08558,-0.1315663 z m 1.029539,0 c 0.07879,0 0.08558,0.012752 0.08558,0.1545586 0,0.1418074 -0.0068,0.1545584 -0.08558,0.1545584 -0.07879,0 -0.08558,-0.012751 -0.08558,-0.1545584 0,-0.1418075 0.0068,-0.1545586 0.08558,-0.1545586 z m -19.538237,0.048539 c 0.148605,0 0.277378,0.039743 0.38448,0.1200702 0.108442,0.078989 0.191514,0.1853959 0.249083,0.320613 0.05891,0.1338784 0.08814,0.2848929 0.08814,0.4509022 v 0.065144 c 0,0.1686867 -0.02929,0.3207944 -0.08686,0.4560113 -0.05757,0.1338786 -0.139425,0.2403475 -0.246527,0.3193353 -0.107103,0.07899 -0.235875,0.1187935 -0.38448,0.1187935 -0.152622,0 -0.282425,-0.03981 -0.390867,-0.1187935 -0.107106,-0.078988 -0.190241,-0.1854574 -0.247809,-0.3193352 -0.05623,-0.1352175 -0.0843,-0.2873249 -0.0843,-0.4560116 v -0.065145 c 0,-0.1660092 0.02807,-0.3170235 0.0843,-0.4509018 0.05757,-0.1352166 0.140703,-0.2416243 0.247805,-0.3206124 0.107103,-0.080327 0.235752,-0.1200705 0.387035,-0.12007 z m 25.221135,0 c 0.148606,0 0.2761,0.039743 0.383202,0.1200702 0.108442,0.078989 0.191515,0.1853959 0.249083,0.320613 0.05891,0.1338784 0.08814,0.2848929 0.08814,0.4509022 v 0.065144 c 0,0.1686867 -0.02802,0.3207944 -0.08558,0.4560113 -0.05756,0.1338786 -0.140703,0.2403475 -0.247805,0.3193353 -0.107103,0.07899 -0.234598,0.1187935 -0.383204,0.1187935 -0.15262,0 -0.282424,-0.03981 -0.390866,-0.1187935 -0.107107,-0.078988 -0.190242,-0.1854574 -0.247809,-0.319336 -0.05623,-0.1352168 -0.08431,-0.2873244 -0.08431,-0.4560111 v -0.065145 c 0,-0.1660092 0.02807,-0.3170238 0.08431,-0.4509021 0.05756,-0.1352171 0.140702,-0.2416248 0.247805,-0.320613 0.107103,-0.080327 0.235753,-0.1200703 0.387034,-0.1200688 z m 8.666772,0 c 0.148604,0 0.277378,0.039743 0.384479,0.1200702 0.108441,0.078989 0.191514,0.1853959 0.249083,0.320613 0.05891,0.1338784 0.08814,0.2848929 0.08814,0.4509022 v 0.065144 c 0,0.1686867 -0.02929,0.3207944 -0.08686,0.4560113 -0.05757,0.1338786 -0.139426,0.2403475 -0.246528,0.3193353 -0.107102,0.07899 -0.234598,0.1187935 -0.383203,0.1187935 -0.152622,0 -0.283702,-0.03981 -0.392145,-0.1187935 -0.107103,-0.078988 -0.18896,-0.1854574 -0.246529,-0.319336 -0.05623,-0.1352168 -0.08431,-0.2873244 -0.08431,-0.4560111 v -0.065145 c 0,-0.1660092 0.02807,-0.3170238 0.08431,-0.4509021 0.05756,-0.1352171 0.139426,-0.2416248 0.246527,-0.320613 0.107104,-0.080327 0.235754,-0.1200703 0.387037,-0.1200697 z m 4.864121,0 c 0.190107,0 0.33869,0.06314 0.445792,0.1903241 0.108442,0.1258456 0.162223,0.2850028 0.162223,0.4764488 v 0.060036 h -1.247964 l -0.0051,-0.012773 c 0.01339,-0.136556 0.04973,-0.2582173 0.107297,-0.36532 0.05891,-0.1084416 0.133714,-0.1938845 0.22609,-0.2554687 0.09238,-0.062923 0.196537,-0.093246 0.311673,-0.093246 z m -7.118632,0.00383 c 0.211527,0 0.371778,0.086536 0.481558,0.2605779 0.109781,0.1740419 0.164778,0.3998635 0.164778,0.6769918 v 0.042153 c 0,0.2624017 -0.055,0.4730309 -0.164778,0.631008 -0.108441,0.1579751 -0.267536,0.2363076 -0.477725,0.2363076 -0.155299,0 -0.286381,-0.033915 -0.392145,-0.1021877 -0.104425,-0.06962 -0.181603,-0.1644197 -0.232477,-0.2835717 V 4.8002615 c 0.04819,-0.1231682 0.123127,-0.2249578 0.223535,-0.3052849 0.100409,-0.080327 0.232583,-0.1200703 0.397254,-0.120069 z M 31.506305,4.7006287 c 0.08892,0 0.09478,0.00841 0.08941,0.1277343 -0.0032,0.070761 -0.0066,0.1404059 -0.0089,0.1545584 -0.0022,0.014152 -0.04351,0.025548 -0.09069,0.025548 -0.07879,0 -0.08558,-0.011475 -0.08558,-0.153281 0,-0.1461032 0.0051,-0.1545585 0.0958,-0.1545593 z m 0.504551,0 c 0.07878,0 0.08558,0.012751 0.08558,0.1545585 0,0.1418059 -0.0068,0.1532811 -0.08558,0.1532811 -0.07879,0 -0.08558,-0.011475 -0.08558,-0.1532811 0,-0.141807 0.0068,-0.1545585 0.08558,-0.1545585 z m 0.51477,0 c 0.07879,0 0.08558,0.012751 0.08558,0.1545585 0,0.1418059 -0.0068,0.1532811 -0.08558,0.1532811 -0.07879,0 -0.08558,-0.011475 -0.08558,-0.1532811 0,-0.141807 0.0068,-0.1545585 0.08558,-0.1545585 z m -1.033372,0.3768162 c 0.07287,0 0.08366,0.017892 0.09452,0.1545584 0.01182,0.1486182 0.0093,0.1545586 -0.08175,0.1545586 -0.08923,0 -0.09452,-0.00891 -0.09452,-0.1545586 0,-0.1400788 0.0071,-0.1545583 0.08175,-0.1545584 z m 0.518602,0 c 0.07878,0 0.08558,0.012752 0.08558,0.1545584 0,0.1418074 -0.0068,0.1545586 -0.08558,0.1545586 -0.07879,0 -0.08558,-0.012752 -0.08558,-0.1545586 0,-0.1418059 0.0068,-0.1545583 0.08558,-0.1545584 z m 0.51477,0 c 0.07879,0 0.08558,0.012752 0.08558,0.1545584 0,0.1418074 -0.0068,0.1545586 -0.08558,0.1545586 -0.07879,0 -0.08558,-0.012752 -0.08558,-0.1545586 0,-0.1418059 0.0068,-0.1545583 0.08558,-0.1545584 z M 27.74964,5.323972 h 0.452178 v 0.4585661 c -0.06293,0.1298621 -0.161187,0.2339601 -0.295065,0.3129495 -0.132539,0.077653 -0.272918,0.116237 -0.421524,0.116237 -0.137894,0 -0.247949,-0.036276 -0.328276,-0.1085736 -0.07899,-0.072295 -0.117516,-0.1658185 -0.117516,-0.2822925 0,-0.139234 0.06193,-0.2562155 0.18777,-0.3512694 0.125844,-0.096392 0.300195,-0.1456171 0.522433,-0.1456171 z m 4.261216,0.1315663 c 0.07878,0 0.08558,0.011474 0.08558,0.1532813 0,0.1418072 -0.0068,0.1545587 -0.08558,0.1545587 -0.07879,0 -0.08558,-0.012753 -0.08558,-0.1545587 0,-0.1418075 0.0068,-0.1532813 0.08558,-0.1532813 z m 0.51477,0 c 0.07879,0 0.08558,0.011474 0.08558,0.1532813 0,0.1418072 -0.0068,0.1545587 -0.08558,0.1545587 -0.07879,0 -0.08558,-0.012753 -0.08558,-0.1545587 0,-0.1418075 0.0068,-0.1532813 0.08558,-0.1532813 z m -1.074246,0.00256 c 0.0129,-0.00145 0.03007,0.00123 0.05237,0.00383 0.08438,0.00984 0.09325,0.023619 0.0958,0.1558358 0.0027,0.1373941 -0.003,0.1456167 -0.09324,0.1456167 -0.09085,0 -0.0958,-0.00723 -0.0958,-0.1558356 0,-0.1126334 0.0021,-0.1451013 0.04087,-0.149449 z m 0.0447,0.3742613 c 0.07515,0 0.08558,0.014861 0.08558,0.1200704 0,0.066044 7.2e-4,0.1314648 0.0013,0.1456175 5.85e-4,0.014153 -0.03783,0.031074 -0.08558,0.037047 -0.0818,0.010224 -0.08686,0.00197 -0.08686,-0.1456187 0,-0.1442381 0.0066,-0.1571124 0.08558,-0.1571124 z m 0.514768,0 c 0.07878,0 0.08558,0.012753 0.08558,0.1545588 0,0.1418076 -0.0068,0.1545591 -0.08558,0.1545591 -0.07879,0 -0.08558,-0.012757 -0.08558,-0.1545591 0,-0.1418064 0.0068,-0.1545588 0.08558,-0.1545588 z m 0.514769,0 c 0.07879,0 0.08558,0.012753 0.08558,0.1545588 0,0.1418076 -0.0068,0.1545591 -0.08558,0.1545591 -0.07879,0 -0.08558,-0.012757 -0.08558,-0.1545591 0,-0.1418064 0.0068,-0.1545588 0.08558,-0.1545588 z m -0.514769,0.3768163 c 0.07878,0 0.08558,0.012757 0.08558,0.1545594 0,0.1418093 -0.0068,0.1545584 -0.08558,0.1545584 -0.07879,0 -0.08558,-0.012757 -0.08558,-0.1545584 0,-0.1418077 0.0068,-0.1545594 0.08558,-0.1545594 z m 0.514769,0 c 0.07879,0 0.08558,0.012757 0.08558,0.1545594 0,0.1418093 -0.0068,0.1545584 -0.08558,0.1545584 -0.07879,0 -0.08558,-0.012757 -0.08558,-0.1545584 0,-0.1418077 0.0068,-0.1545594 0.08558,-0.1545594 z m -1.074245,0.00385 c 0.0131,-0.00137 0.03096,-5.56e-5 0.05364,0.00257 0.08642,0.00995 0.09452,0.023571 0.09452,0.157114 0,0.1361695 -0.0064,0.1455988 -0.09452,0.1456167 -0.08911,1.81e-5 -0.09452,-0.00779 -0.09452,-0.1558357 0,-0.1129979 0.0015,-0.1452198 0.04087,-0.1494498 z m 0.05364,0.4087497 c 0.08929,0 0.0959,0.0088 0.09452,0.1456168 -0.0013,0.1328619 -0.01046,0.1472252 -0.0958,0.157114 -0.08994,0.01043 -0.09325,0.00351 -0.09325,-0.146895 0,-0.1483341 0.0044,-0.1558358 0.09452,-0.1558358 z m 0.505827,0 c 0.07878,0 0.08558,0.012757 0.08558,0.1545584 0,0.1418103 -0.0068,0.1545585 -0.08558,0.1545585 -0.07879,0 -0.08558,-0.012757 -0.08558,-0.1545585 0,-0.1418034 0.0068,-0.1545584 0.08558,-0.1545584 z m 0.51477,0 c 0.07879,0 0.08558,0.012757 0.08558,0.1545584 0,0.1418103 -0.0068,0.1545585 -0.08558,0.1545585 -0.07879,0 -0.08558,-0.012757 -0.08558,-0.1545585 0,-0.1418034 0.0068,-0.1545584 0.08558,-0.1545584 z m 12.028737,0.065144 v 0.089415 H 59.162047 V 6.6868877 Z M 31.496081,6.9985593 c 0.07879,0 0.08558,0.012757 0.08558,0.1545597 0,0.141809 -0.0068,0.1545579 -0.08558,0.1545579 -0.07879,0 -0.08558,-0.01276 -0.08558,-0.1545579 0,-0.1418108 0.0068,-0.1545597 0.08558,-0.1545597 z m 0.51477,0 c 0.07878,0 0.08558,0.012757 0.08558,0.1545597 0,0.1418029 -0.0068,0.1545579 -0.08558,0.1545579 -0.07879,0 -0.08558,-0.01276 -0.08558,-0.1545579 0,-0.1418115 0.0068,-0.1545597 0.08558,-0.1545597 z m 0.514769,0 c 0.07879,0 0.08558,0.012757 0.08558,0.1545597 0,0.1418029 -0.0068,0.1545579 -0.08558,0.1545579 -0.07879,0 -0.08558,-0.01276 -0.08558,-0.1545579 0,-0.1418115 0.0068,-0.1545597 0.08558,-0.1545597 z M 32.010851,7.376625 c 0.07878,0 0.08558,0.01276 0.08558,0.154559 0,0.14181 -0.0068,0.153281 -0.08558,0.153281 -0.07879,0 -0.08558,-0.01147 -0.08558,-0.153281 0,-0.141804 0.0068,-0.154559 0.08558,-0.154559 z m 0.514769,0 c 0.07879,0 0.08558,0.01276 0.08558,0.154559 0,0.14181 -0.0068,0.153281 -0.08558,0.153281 -0.07879,0 -0.08558,-0.01147 -0.08558,-0.153281 0,-0.141804 0.0068,-0.154559 0.08558,-0.154559 z m -1.075524,0.0039 c 0.01254,-0.0015 0.02952,-3.01e-5 0.0511,0.0026 0.08135,0.0097 0.09119,0.02494 0.09452,0.155837 0.0035,0.1371301 -0.002,0.1456421 -0.09069,0.145617 -0.08911,-2.5e-5 -0.09452,-0.0078 -0.09452,-0.155836 0,-0.111909 0.002,-0.143589 0.0396,-0.148172 z" />
</svg>